<?xml version="1.0" encoding="utf-8"?>
<!-- Generator: Adobe Illustrator 19.0.0, SVG Export Plug-In . SVG Version: 6.00 Build 0)  -->
<svg version="1.1" id="Layer_1" xmlns="http://www.w3.org/2000/svg" xmlns:xlink="http://www.w3.org/1999/xlink" x="0px" y="0px"
	 viewBox="0 0 71.4 31.2" style="enable-background:new 0 0 71.4 31.2;" xml:space="preserve">
<g id="XMLID_1_">
	<path id="XMLID_29_" d="M0.2,1.1c0.4-0.2,0.7-0.3,1-0.3c1.5-0.1,3-0.2,4.5-0.3c0.8,0,1.6,0.2,2.4,0.7c0.6,0.3,1,0.9,1.2,1.5
		c0.5,1.3,0.6,2.6,0.3,4C9.5,7.3,9.3,7.8,9.2,8.3C9,8.8,8.8,9.3,8.5,9.7c-0.5,0.8-1.1,1.5-1.8,2.2S5.3,13,4.4,13.4
		c-0.5,0.2-1,0.3-1.5,0.4c-0.1,0.4-0.1,0.8-0.1,1.2c0,1.1,0,2.2,0.1,3.4c0,1.8-0.1,3.7-0.1,5.6c0,1.5-0.1,3-0.1,4.5
		c0,0.5,0,1.1,0,1.6c0.3,0.2,0.6,0.2,0.9,0.2c0.3,0,0.6-0.1,0.9-0.1c0.1,0,0.3,0,0.5,0c0.2,0.1,0.3,0.2,0.3,0.3c0,0,0,0.1-0.1,0.2
		c-0.1,0.1-0.1,0.1-0.2,0.1c-0.4,0-0.9,0.1-1.4,0.1c-0.5,0.1-1,0.1-1.6,0.2C1.5,31,1,31,0.6,31c-0.2-0.1-0.4-0.2-0.6-0.4
		c0-0.1,0-0.1,0-0.2c0.6,0,1.1-0.1,1.6-0.1c0.2-0.8,0.3-1.5,0.3-2.3c0-0.7,0-1.5,0-2.2c0.1-1.3,0.1-2.6,0.2-3.9
		c0.1-1.4,0.1-2.8,0.1-4.2c0-3.1,0-6.3,0-9.5c0-2.2-0.2-4.3-0.3-6.5c0-0.5-0.1-0.7-0.2-0.8C1.6,0.9,1.3,0.9,0.8,1C0.7,1,0.5,1,0.4,1
		c0,0-0.1,0-0.3-0.2L0.2,1.1z M2.8,12.9c0.9,0,1.8-0.3,2.5-0.9c1-0.8,1.8-1.7,2.5-2.7c0.7-1,1.1-2.2,1.3-3.5c0.2-1.2,0-2.4-0.4-3.5
		C8.5,1.9,8.3,1.6,7.9,1.4C7.4,1.1,6.8,0.9,6.3,0.8c-1.3,0-2.6,0-3.9,0.1C2.5,4.9,2.7,8.9,2.8,12.9L2.8,12.9z"/>
	<path id="XMLID_32_" d="M13.5,30.5c0.7-0.1,1.5-0.2,2.2-0.3c0.7,0,1.5-0.1,2.2-0.1c1,0,2.1-0.1,3.1-0.1c0.4,0,0.8-0.1,1.2-0.1
		c0.4,0,0.6-0.2,0.6-0.6c0-0.5,0-1.1,0.1-1.6c0-0.1,0-0.3,0.1-0.6c0.3,0.3,0.4,0.6,0.4,0.9c0,0.3,0,0.6,0,0.9c0,0.6,0,1.2,0,1.8
		c-1-0.2-2.1-0.2-3,0c-0.6,0.1-1.2,0.1-1.8,0.1c-1.3,0-2.5,0.1-3.7,0.3c-0.7,0.1-1.3,0.1-1.9,0.1c-0.4,0-0.8-0.1-1.2-0.5
		c0.5-0.1,0.9-0.2,1.2-0.2c0.2-2,0.4-4,0.5-5.9c0.1-2,0.2-3.9,0.3-5.9c0.1-2.4,0.3-4.8,0.4-7.1c0.1-1.3,0.1-2.7,0.1-4
		c0-1.6,0-3.3,0-4.9c0-0.3,0-0.5,0-0.7c0-0.4-0.1-0.6-0.2-0.6c-0.1-0.1-0.3-0.1-0.6-0.2c-0.1,0-0.3-0.1-0.4-0.2c0-0.1,0-0.1,0-0.2
		c0.5-0.1,1-0.2,1.5-0.3c0.5,0,1-0.1,1.5-0.1c0.1,0,0.3,0,0.4,0.1s0.2,0.2,0.2,0.4c-0.2,0-0.5,0.1-0.8,0.1c-0.5,0-0.7,0.1-0.8,0.2
		c-0.1,0.1-0.1,0.4-0.1,0.8c0.1,0.9,0.1,1.7,0.1,2.6c0,1.9,0,3.9,0,5.8c-0.1,3-0.3,6.1-0.4,9.1c-0.1,1.4-0.2,2.9-0.2,4.3
		c-0.1,1.7-0.2,3.4-0.4,5.1c0,0.4,0,0.8,0,1.3L13.5,30.5z"/>
	<path id="XMLID_34_" d="M27,29.7c0-0.5,0-1,0-1.5c-0.1-1.4-0.2-2.7-0.1-4.1c0.1-1.4,0.1-2.7,0.2-4.1c0.1-2.1,0.2-4.3,0.3-6.4
		c0.1-2.5,0.3-5,0.4-7.5c0-1.4,0.3-2.8,0.7-4.1c0.2-0.5,0.4-0.9,0.6-1.3c0.2-0.2,0.4-0.4,0.6-0.5C30.8,0,32-0.1,33.2,0.2
		c0.4,0.1,0.8,0.3,1,0.7c0.2,0.3,0.4,0.7,0.5,1.1c0.2,1,0.3,1.9,0.4,2.9c0,0.8,0.1,1.5,0,2.3c0,1.9-0.1,3.8-0.1,5.8
		c0,2-0.1,3.9-0.1,5.8c-0.1,1.7-0.2,3.4-0.2,5c0,0.7-0.1,1.4-0.1,2.1c-0.1,0.7,0,1.3,0.1,2c0.1,0.6,0.3,1.1,0.6,1.6
		c0.1,0.1,0.2,0.3,0.3,0.4c0.2,0.1,0.3,0.1,0.5,0c0.4-0.2,0.7-0.5,0.7-1.2c-0.2,0.1-0.4,0.2-0.6,0.3c-0.2,0.1-0.4,0.2-0.6,0.3
		c0.2-0.4,0.3-0.7,0.4-0.9c0.1-0.1,0.2-0.2,0.5-0.2s0.4,0,0.6,0.1c0.3,0.2,0.4,0.5,0.4,0.9c0,0.1-0.1,0.2-0.1,0.3
		c-0.3,0.7-0.6,1.1-1,1.1c-0.4,0-0.9-0.2-1.4-0.6c-0.3-0.3-0.5-0.6-0.7-0.9c-0.1-0.4-0.2-0.7-0.2-1.1c0-1,0-2,0-3
		c0.1-2.5,0.2-5,0.2-7.6c0-1.3,0-2.5,0.1-3.8c0.1-1.7,0.2-3.4,0.2-5.1c0-0.2,0-0.4,0-0.7c-1.1,0.1-2.1,0.3-3.1,0.4
		c-1,0.1-2,0.2-3.1,0.3c0,0.8-0.1,1.5-0.1,2.2c0,2.1-0.1,4.2-0.1,6.3c0,0.5,0,0.9,0,1.4s0,0.9-0.1,1.3c-0.1,0.9-0.2,1.9-0.2,2.8
		c0,1-0.1,2,0,3c0,0.7,0,1.5,0,2.2c0,0.6,0,1.2,0.1,1.9c0.4,0.1,0.8,0.1,1.2,0.2c0.1,0.4,0.1,0.6,0,0.8c-0.1,0.1-0.3,0.1-0.6,0.1
		c-0.9,0-1.8,0-2.6,0.2c-0.1,0-0.3,0-0.4,0.1c-0.1,0-0.2-0.1-0.2-0.3c0-0.1,0.1-0.2,0.2-0.3c0.1-0.1,0.2-0.2,0.3-0.3
		c0.3-0.1,0.5-0.2,0.8-0.2c0.1,0,0.3-0.1,0.5-0.1L27,29.7z M34.4,6.8c0-0.7,0-1.5,0-2.2c0-0.7,0-1.5-0.2-2.2
		c-0.1-0.4-0.2-0.7-0.5-1.1c-0.2-0.3-0.5-0.4-0.8-0.5c-0.7,0-1.4,0-2.1,0c-0.5,0-0.9,0.1-1.1,0.4C29.4,1.3,29.2,1.6,29,2
		c0,0.2-0.1,0.3-0.1,0.5c-0.2,1.5-0.4,3-0.6,4.5c0,0.2,0,0.3,0,0.5c1,0,2,0,3-0.1c1-0.1,2-0.3,3-0.6L34.4,6.8z"/>
	<path id="XMLID_37_" d="M41.5,1.3c0.2,1,0.4,1.9,0.5,2.8c0.3,1.5,0.6,3.1,0.8,4.6c0,0.1,0,0.2,0.1,0.3c0.3,1,0.5,1.9,0.7,2.9
		c0.1,1,0.3,1.9,0.5,2.9c0.4,2.1,0.8,4.3,1.2,6.4c0.5,2.6,1,5.2,1.6,7.8c0,0.2,0.1,0.3,0.2,0.5c0.2,0,0.3,0,0.3-0.1
		c0.1-0.1,0.1-0.2,0.2-0.3c0.4-1,0.7-2,1-3.1c1-3.9,1.9-7.7,2.9-11.6c0.2-0.7,0.4-1.4,0.6-2.1c0.2-0.7,0.5-1.4,0.6-2.2
		c0.5-2.4,1-4.8,1.5-7.2c0-0.2,0.1-0.5,0.1-0.7c0-0.3,0-0.6,0.1-0.9c-0.3,0-0.5,0-0.7,0c-0.2-0.1-0.3-0.2-0.4-0.2c0,0,0-0.1,0-0.2
		c0-0.1,0.1-0.1,0.2-0.2c0.4-0.1,0.8-0.2,1.2-0.3c0.8,0,1.5,0,2.3,0c0.2,0,0.4,0.1,0.6,0.2c-0.4,0.3-0.8,0.5-1.2,0.4s-0.8,0-1.1,0.1
		c-0.3,0.6-0.5,1.2-0.6,1.9c-0.1,0.6-0.2,1.3-0.4,1.9c-0.3,1.4-0.6,2.8-0.9,4.3c-0.3,1.4-0.6,2.8-1,4.2c-0.7,2.4-1.3,4.9-1.9,7.3
		c-0.5,2.2-1.1,4.4-1.6,6.6c-0.1,0.5-0.3,1.1-0.5,1.6c-0.1,0.2-0.2,0.4-0.2,0.8c0.7-0.1,1.3-0.1,1.9-0.2c0.2,0,0.3,0,0.4,0.1
		c0.1,0.1,0.1,0.2,0.1,0.5c-0.9,0.1-1.8,0.3-2.7,0.4c-0.9,0.1-1.8,0.1-2.7-0.1c-0.1,0-0.2-0.1-0.3-0.3c0.3-0.3,0.5-0.3,0.9-0.2
		c0.3,0.1,0.6,0,0.9-0.1c0-0.2,0-0.4-0.1-0.6c-0.4-2.1-0.9-4.1-1.3-6.2c-0.6-3.1-1.2-6.3-1.7-9.5c-0.1-1-0.3-1.9-0.6-2.8
		c-0.3-0.9-0.5-1.9-0.6-2.8c-0.3-1.9-0.7-3.8-1-5.7c-0.1-0.4-0.2-0.6-0.2-0.7c-0.1-0.1-0.3-0.1-0.8-0.2c-0.2,0-0.4,0-0.5,0
		c-0.1,0-0.2,0-0.3-0.1c0,0-0.1-0.2-0.2-0.5c0.8,0.1,1.7,0,2.5-0.1c0.8-0.2,1.7-0.4,2.5-0.6c-0.1,0.3-0.2,0.5-0.4,0.6
		c-0.2,0.1-0.4,0.2-0.6,0.3c-0.6,0.2-1.2,0.4-1.8,0.5L41.5,1.3z"/>
	<path id="XMLID_39_" d="M61.1,29.7c0-0.5,0-1,0-1.5c-0.1-1.4-0.2-2.7-0.1-4.1c0.1-1.4,0.1-2.7,0.2-4.1c0.1-2.1,0.2-4.3,0.3-6.4
		c0.1-2.5,0.3-5,0.4-7.5c0-1.4,0.3-2.8,0.7-4.1c0.2-0.5,0.4-0.9,0.6-1.3c0.2-0.2,0.4-0.4,0.6-0.5c1.2-0.3,2.3-0.4,3.5-0.1
		c0.4,0.1,0.8,0.3,1,0.7c0.2,0.3,0.4,0.7,0.5,1.1c0.2,1,0.3,1.9,0.4,2.9c0,0.8,0.1,1.5,0,2.3c0,1.9-0.1,3.8-0.1,5.8
		c0,2-0.1,3.9-0.1,5.8c-0.1,1.7-0.2,3.4-0.2,5c0,0.7-0.1,1.4-0.1,2.1c-0.1,0.7,0,1.3,0.1,2c0.1,0.6,0.3,1.1,0.6,1.6
		c0.1,0.1,0.2,0.3,0.3,0.4c0.2,0.1,0.3,0.1,0.5,0c0.4-0.2,0.7-0.5,0.7-1.2c-0.2,0.1-0.4,0.2-0.6,0.3c-0.2,0.1-0.4,0.2-0.6,0.3
		c0.2-0.4,0.3-0.7,0.4-0.9c0.1-0.1,0.2-0.2,0.5-0.2s0.4,0,0.6,0.1c0.3,0.2,0.4,0.5,0.4,0.9c0,0.1-0.1,0.2-0.1,0.3
		c-0.3,0.7-0.6,1.1-1,1.1c-0.4,0-0.9-0.2-1.4-0.6c-0.3-0.3-0.5-0.6-0.7-0.9c-0.1-0.4-0.2-0.7-0.2-1.1c0-1,0-2,0-3
		c0.1-2.5,0.2-5,0.2-7.6c0-1.3,0-2.5,0.1-3.8c0.1-1.7,0.2-3.4,0.2-5.1c0-0.2,0-0.4,0-0.7c-1.1,0.1-2.1,0.3-3.1,0.4
		c-1,0.1-2,0.2-3.1,0.3c0,0.8-0.1,1.5-0.1,2.2c0,2.1-0.1,4.2-0.1,6.3c0,0.5,0,0.9,0,1.4s0,0.9-0.1,1.3c-0.1,0.9-0.2,1.9-0.2,2.8
		c0,1-0.1,2,0,3c0,0.7,0,1.5,0,2.2c0,0.6,0,1.2,0.1,1.9c0.4,0.1,0.8,0.1,1.2,0.2c0.1,0.4,0.1,0.6,0,0.8c-0.1,0.1-0.3,0.1-0.6,0.1
		c-0.9,0-1.8,0-2.6,0.2c-0.1,0-0.3,0-0.4,0.1c-0.1,0-0.2-0.1-0.2-0.3c0-0.1,0.1-0.2,0.2-0.3c0.1-0.1,0.2-0.2,0.3-0.3
		c0.3-0.1,0.5-0.2,0.8-0.2c0.1,0,0.3-0.1,0.5-0.1L61.1,29.7z M68.5,6.8c0-0.7,0-1.5,0-2.2c0-0.7,0-1.5-0.2-2.2
		c-0.1-0.4-0.2-0.7-0.5-1.1C67.7,1,67.4,0.8,67,0.7c-0.7,0-1.4,0-2.1,0c-0.5,0-0.9,0.1-1.1,0.4c-0.3,0.3-0.5,0.6-0.6,0.9
		c0,0.2-0.1,0.3-0.1,0.5c-0.2,1.5-0.4,3-0.6,4.5c0,0.2,0,0.3,0,0.5c1,0,2,0,3-0.1c1-0.1,2-0.3,3-0.6L68.5,6.8z"/>
</g>
</svg>
